<svg id="Layer_3" data-name="Layer 3" xmlns="http://www.w3.org/2000/svg" viewBox="0 0 996.38 760.82"><defs><style>.cls-1{fill:#e274be;}</style></defs><title>PGM_Logo</title><path class="cls-1" d="M516.86,0c4.86.36,9.71.78,14.58,1.08C599.65,5.39,664.9,21.23,726.3,51.63c38.79,19.2,73.94,43.61,104.13,74.83,20.29,21,37.41,44.23,50.31,70.49.37.75.67,1.52,1.09,2.51H111c1.47-3,2.77-5.71,4.19-8.39a274.43,274.43,0,0,1,48-65.12c8.54-8.6,17.8-16.47,26.62-24.8a7.26,7.26,0,0,0,2.09-4.33c2-26.41,3.8-52.82,5.66-79.23.25-3.54.47-7.09.72-11,1,.43,1.81.68,2.54,1.06q36.2,18.92,72.35,37.92a6.12,6.12,0,0,0,6.12.06,488.69,488.69,0,0,1,113-35.87,535.5,535.5,0,0,1,82-9.33A6.38,6.38,0,0,0,475.81,0ZM776,180c0-7.23-.3-14.26.07-21.25.66-12.62-9.34-24.4-24.15-24.06-11,.25-22,0-33,0h-4.26c0-2,0-3.73,0-5.43,0-7.76,2.87-10.65,10.6-10.65h51V104.16c-18.51,0-36.82-.26-55.11.1a21.19,21.19,0,0,0-20.43,18c-.93,6.13-.46,12.48-.58,18.73-.05,2.76,0,5.53,0,8.48H704q24.28,0,48.56,0c4.7,0,8.1,2.3,8.66,6.4.42,3.08.08,6.27.08,9.7h-61.4V180Zm-382.23-75.8v76.12h14.37V149.48h3c9.35,0,18.69.07,28-.05,2.21,0,3.15.76,4,2.74,3.79,9.15,7.74,18.24,11.73,27.31.38.86,1.43,2,2.21,2,4.7.19,9.4.09,14.55.09L457,147.15c7.69-4.51,12-10.85,12.43-19.55.18-4,0-8.09,0-12.14,0-3.72,0-7.44,0-11.27Zm-92.16-.11c-.08.93-.16,1.41-.16,1.88,0,17-.16,34.1,0,51.15.16,13.63,9.89,22.94,23.67,23,16.47.07,32.94,0,49.41,0,.91,0,1.83-.12,2.91-.2,0-1.22,0-2.17,0-3.12q0-24.42,0-48.84c0-14.26-9.68-23.87-24-23.88H301.63Zm275.48,76h3.07c16.47,0,32.94,0,49.41,0,14.31,0,23.82-9.64,23.83-24q0-24.56,0-49.12c0-1,0-2.06,0-3.22H638.85v30.95H601.4c-6.25,0-9.32-3.09-9.35-9.44s0-12.52,0-18.78c0-.92-.1-1.83-.15-2.74H577.56c0,8.31-.24,16.48.06,24.62.4,11,9.54,20.43,20.58,20.82,12.41.44,24.84.21,37.26.29,1.1,0,2.2.09,3.42.15,0,2.09,0,3.81,0,5.54,0,7.42-2.87,10.29-10.32,10.29q-24.13,0-48.26,0h-3.18Zm-353-30.65h3.58c11.27,0,22.54.06,33.8,0,14.54-.09,24-9.64,24-24.17q0-8.38,0-16.76v-4.3H209.7v76.09h14.42Zm275.93-45.64H485.71v76.5h14.45V149.75a7,7,0,0,1,1.13-.24c12.52,0,25-.08,37.56,0,4.66,0,7.87,3.41,7.95,8.16.09,5.68,0,11.37,0,17,0,1.88,0,3.76,0,5.55h14.56c0-6.68-.18-13.14,0-19.57.25-6.9-1.07-13.2-5.93-18.6,4.91-5.41,6.22-11.81,5.93-18.8-.24-5.67,0-11.36-.06-17,0-.83-.12-1.65-.18-2.4H546.83c0,7.46,0,14.68,0,21.9,0,5.77-3.21,9-8.91,9H500.06Zm183.85,30.45V103.78H669.68v30.51Z"/><path class="cls-1" d="M340.92,662.06v98.76h-51.8V643.41c-8.94-4.29-17.7-8.27-26.27-12.63-39.37-20.07-74.89-45.37-105.05-77.86a277,277,0,0,1-44.69-63.61c-.3-.59-.55-1.2-.94-2.08H880.7c-.44,1-.81,1.92-1.26,2.81A278.42,278.42,0,0,1,833,555.21c-29,30.7-62.94,54.81-100.31,74.22a4.43,4.43,0,0,0-2.78,4.65q.09,61.44,0,122.87v3.87H678V653.61l-3.6,1c-17.16,5-34.3,10.14-51.49,15.05-2.45.7-3.29,1.55-3.28,4.2.12,27.75.07,55.51.07,83.26v3.62H567.87V679.86a573.74,573.74,0,0,1-116.47,2.73v78.22h-52.2c0-1.17,0-2.38,0-3.58,0-25.83,0-51.65.07-77.48,0-2.93-.68-4-3.73-4.65-17.63-4-35.19-8.32-52.77-12.53C342.3,662.45,341.85,662.32,340.92,662.06ZM713.47,548.77h3.29q16.62,0,33.24,0c10.19,0,19-7,20.7-17.07.85-5.17.47-10.55.59-15.84.07-3.24,0-6.47,0-9.69H699.49v3.05q0,23,0,46c0,13.62,9,22.58,22.64,22.59q23.13,0,46.25,0h3.14V563.9h-3.4q-23.27,0-46.54,0c-4.41,0-7.69-2.42-8.07-6.24C713.24,554.81,713.47,551.93,713.47,548.77ZM323.13,577.53h71.33c0-17.11.39-34-.13-50.82C393.94,514,384.71,506,372,506H322.5v13.88h3.35q23.27,0,46.55,0c4.27,0,7.49,2.23,8,6a73.42,73.42,0,0,1,.07,9.12H377.2c-11.18,0-22.36,0-33.54,0-9.88,0-19.32,7.4-20.35,17.12C322.43,560.46,323.13,569,323.13,577.53ZM221.5,506v72h13.73V519.86h13c6.49,0,9.26,2.77,9.26,9.35q0,22.69,0,45.38c0,1.13,0,2.26,0,3.46h14V534.65a3.34,3.34,0,0,1,.78-.29c4.33,0,8.67-.06,13,0,5.39,0,8.39,3,8.4,8.4q0,16.19,0,32.37v3h13.88v-3q0-16.33,0-32.66c0-12.66-9.07-21.86-21.77-22.05-4.43-.07-8.87-.09-13.29,0-1.69,0-2.45-.55-3.17-2.07-3.53-7.35-9.46-11.86-17.57-12.24C241.74,505.68,231.72,506,221.5,506Zm346.68,72.13V505.66H554.5v29.1H510.41v-29h-13.6V578h13.78V548.93h44v29.24ZM423.75,563.92a17,17,0,0,1-.26-2c0-11.37-.07-22.73,0-34.1,0-5.06,3.17-8,8.25-8q23.41,0,46.82,0h3.16V506H433.12c-14.75,0-23.51,8.76-23.52,23.54s0,29.86,0,44.79c0,1,0,2.07,0,3.26h72.08V563.92Zm202.51,14.19V519.86H660.8c7.07,0,9.78,2.7,9.78,9.76q0,22.69,0,45.38c0,1,0,2,0,3h13.69v-3.67q0-23.13,0-46.25c0-13-9.15-22.14-22.21-22.15q-23.13,0-46.25,0h-3.08v72.14Zm-42.6-72.46V578h13.48V505.66Z"/><path class="cls-1" d="M100,268.43H50.29V417.94H99.71V406H62.26V355.82h87.68V468.15c-1,0-2,.13-3.06.13q-47.84,0-95.69,0c-25.41,0-45.66-16.68-50.4-41.45a43.19,43.19,0,0,1-.77-8Q0,320.07,0,221.35v-2.89c1.18-.06,2.2-.15,3.23-.15q48.86,0,97.71,0c24.91,0,46.6,20,48.79,44.77.26,3,.4,6,.4,8.94q0,33.82,0,67.65v3.62H100Z"/><path class="cls-1" d="M168.84,218.48H318.62c0,1.1,0,2.12,0,3.14q0,73.43,0,146.85c0,14.55-5.6,26.77-16.27,36.62-1.47,1.35-1.62,2.36-.94,4.15,7,18.44,13.89,36.91,20.81,55.38l1.22,3.29c-1.21.08-2.12.18-3,.19-15.9,0-31.8,0-47.7.06-2.06,0-3-.61-3.75-2.57-5.52-15-11.2-29.91-16.73-44.89-.71-1.93-1.62-2.6-3.7-2.57-8.86.12-17.73.05-26.59.05h-3.11v49.89h-50Zm50,149.31h49.44V268.54H218.87Z"/><path class="cls-1" d="M505.88,468.18c0-1.32,0-2.37,0-3.41q0-98.3,0-196.6a49.92,49.92,0,0,1,49.8-49.87q48.28,0,96.57,0h3.52c.06,1.16.16,2.17.16,3.18q0,98,0,196c0,25.36-17.23,45.74-42.14,50.08a49.31,49.31,0,0,1-8.34.69q-48.57.07-97.14,0C507.63,468.29,507,468.23,505.88,468.18Zm50.4-199.72V417.84h49.39V268.46Z"/><path class="cls-1" d="M487.27,468.29h-3.19q-48,0-96,0c-25.39,0-45.66-17.06-50.17-42a42.35,42.35,0,0,1-.61-7.47q0-98.43,0-196.85c0-1,0-2.1,0-3.47,1.21-.06,2.23-.15,3.24-.15,32.57,0,65.14-.06,97.7,0,26.5.06,49,22.68,49,49.17q0,98.72,0,197.43ZM387.54,268.41V417.88h49.4V268.41Z"/><path class="cls-1" d="M674.59,468.29V218.54h49.83V417.84h50V218.51h50c0,1.27,0,2.41,0,3.55q0,97.86,0,195.72a49.9,49.9,0,0,1-46.69,50.29c-2,.15-4,.21-6.06.21H674.59Z"/><path class="cls-1" d="M843.1,468.06v-3.54q0-98.3,0-196.61c0-28.39,26-51.8,54.38-49.5a227.71,227.71,0,0,0,29.47,0c9-.44,15.92-7.88,16.56-16.78a18.25,18.25,0,0,0-34.82-8.84c-.4.84-.77,1.7-1.24,2.75-3.55-15.82,4.73-31.54,20.46-37.59,19.43-7.47,37.19-3.41,52.11,10.62,21.48,20.19,21.71,51.35,1.21,73.49C968.34,256,952,263.15,933.61,266.58c-12.22,2.28-24.57,1.72-36.89,1.67-2.73,0-3.58.67-3.57,3.5.1,26.89.06,53.78.06,80.67v3.12h49.71v50.15H893.45V418h87v50.1Z"/><path class="cls-1" d="M454.8,118.87H408.35v15.85c13.19,0,26.19.07,39.19,0a7.6,7.6,0,0,0,7.21-7.07C455,124.77,454.8,121.88,454.8,118.87Z"/><path class="cls-1" d="M454.8,118.87c0,3,.23,5.9-.06,8.73a7.6,7.6,0,0,1-7.21,7.07c-13,.11-26,0-39.19,0V118.87Z"/><path class="cls-1" d="M316.27,118.83c.7-.07,1.26-.17,1.81-.17,11.85,0,23.7-.06,35.54,0,5.61,0,9.09,2.89,9.19,8.23.24,12.7.08,25.4.08,38.39-1,.07-2,.18-2.88.18q-17,0-34.1,0c-6.75,0-9.78-3-9.8-9.6,0-11.46,0-22.92,0-34.39C316.12,120.64,316.22,119.8,316.27,118.83Z"/><path class="cls-1" d="M270.57,118.84a89.62,89.62,0,0,1-.08,9.76,7.06,7.06,0,0,1-6.51,6c-13.16.14-26.32.06-39.64.06V118.84Z"/><path class="cls-1" d="M713.49,534.92V520.05H757.3a75,75,0,0,1-.07,8.78,6.93,6.93,0,0,1-6.78,6C738.24,535,726,534.92,713.49,534.92Z"/><path class="cls-1" d="M380.51,548.81v14.93H336.67a75.68,75.68,0,0,1,.07-8.65,7.09,7.09,0,0,1,6.95-6.22C355.9,548.73,368.12,548.81,380.51,548.81Z"/></svg>
